<svg version="1.1" xmlns="http://www.w3.org/2000/svg" xmlns:xlink="http://www.w3.org/1999/xlink" width="303.736328125" height="97"><defs/><g><text fill="#eeeeee" stroke="none" font-family="Arial" font-size="24px" font-style="normal" font-weight="normal" text-decoration="none" x="0" y="0">UNREGISTERED</text><text fill="#eeeeee" stroke="none" font-family="Arial" font-size="24px" font-style="normal" font-weight="normal" text-decoration="none" x="0" y="30">UNREGISTERED</text><text fill="#eeeeee" stroke="none" font-family="Arial" font-size="24px" font-style="normal" font-weight="normal" text-decoration="none" x="0" y="60">UNREGISTERED</text><text fill="#eeeeee" stroke="none" font-family="Arial" font-size="24px" font-style="normal" font-weight="normal" text-decoration="none" x="0" y="90">UNREGISTERED</text><text fill="#eeeeee" stroke="none" font-family="Arial" font-size="24px" font-style="normal" font-weight="normal" text-decoration="none" x="200" y="0">UNREGISTERED</text><text fill="#eeeeee" stroke="none" font-family="Arial" font-size="24px" font-style="normal" font-weight="normal" text-decoration="none" x="200" y="30">UNREGISTERED</text><text fill="#eeeeee" stroke="none" font-family="Arial" font-size="24px" font-style="normal" font-weight="normal" text-decoration="none" x="200" y="60">UNREGISTERED</text><text fill="#eeeeee" stroke="none" font-family="Arial" font-size="24px" font-style="normal" font-weight="normal" text-decoration="none" x="200" y="90">UNREGISTERED</text><g transform="translate(-462,-390) scale(1,1)"><rect fill="#C0C0C0" stroke="none" x="479" y="407" width="283.736328125" height="77" opacity="0.2"/></g><g transform="translate(-462,-390) scale(1,1)"><rect fill="#ffffff" stroke="none" x="472" y="400" width="283.736328125" height="77"/></g><g transform="translate(-462,-390) scale(1,1)"><path fill="none" stroke="#000000" d="M 472 400 L 755.736328125 400 L 755.736328125 477 L 472 477 L 472 400 Z Z" stroke-miterlimit="10"/></g><g transform="translate(-462,-390) scale(1,1)"><path fill="none" stroke="#000000" d="M 472 440 L 755.736328125 440" stroke-miterlimit="10"/></g><g transform="translate(-462,-390) scale(1,1)"><g><path fill="none" stroke="none"/><text fill="#000000" stroke="none" font-family="Arial" font-size="28px" font-style="normal" font-weight="bold" text-decoration="none" x="546.978515625" y="430.64453125">Controller</text></g></g><g transform="translate(-462,-390) scale(1,1)"><g><path fill="none" stroke="none"/><text fill="#000000" stroke="none" font-family="Arial" font-size="28px" font-style="normal" font-weight="normal" text-decoration="none" x="477" y="468.64453125">+handle(event: Event)</text></g></g></g></svg>